<svg width="213" height="40" viewBox="0 0 213 40" fill="none" xmlns="http://www.w3.org/2000/svg">
<path d="M54.2734 21.3086H49.7148V19.4688H54.2734C55.1562 19.4688 55.8711 19.3281 56.418 19.0469C56.9648 18.7656 57.3633 18.375 57.6133 17.875C57.8711 17.375 58 16.8047 58 16.1641C58 15.5781 57.8711 15.0273 57.6133 14.5117C57.3633 13.9961 56.9648 13.582 56.418 13.2695C55.8711 12.9492 55.1562 12.7891 54.2734 12.7891H50.2422V28H47.9805V10.9375H54.2734C55.5625 10.9375 56.6523 11.1602 57.543 11.6055C58.4336 12.0508 59.1094 12.668 59.5703 13.457C60.0312 14.2383 60.2617 15.1328 60.2617 16.1406C60.2617 17.2344 60.0312 18.168 59.5703 18.9414C59.1094 19.7148 58.4336 20.3047 57.543 20.7109C56.6523 21.1094 55.5625 21.3086 54.2734 21.3086ZM62.0547 21.8008V21.5312C62.0547 20.6172 62.1875 19.7695 62.4531 18.9883C62.7188 18.1992 63.1016 17.5156 63.6016 16.9375C64.1016 16.3516 64.707 15.8984 65.418 15.5781C66.1289 15.25 66.9258 15.0859 67.8086 15.0859C68.6992 15.0859 69.5 15.25 70.2109 15.5781C70.9297 15.8984 71.5391 16.3516 72.0391 16.9375C72.5469 17.5156 72.9336 18.1992 73.1992 18.9883C73.4648 19.7695 73.5977 20.6172 73.5977 21.5312V21.8008C73.5977 22.7148 73.4648 23.5625 73.1992 24.3438C72.9336 25.125 72.5469 25.8086 72.0391 26.3945C71.5391 26.9727 70.9336 27.4258 70.2227 27.7539C69.5195 28.0742 68.7227 28.2344 67.832 28.2344C66.9414 28.2344 66.1406 28.0742 65.4297 27.7539C64.7188 27.4258 64.1094 26.9727 63.6016 26.3945C63.1016 25.8086 62.7188 25.125 62.4531 24.3438C62.1875 23.5625 62.0547 22.7148 62.0547 21.8008ZM64.2227 21.5312V21.8008C64.2227 22.4336 64.2969 23.0312 64.4453 23.5938C64.5938 24.1484 64.8164 24.6406 65.1133 25.0703C65.418 25.5 65.7969 25.8398 66.25 26.0898C66.7031 26.332 67.2305 26.4531 67.832 26.4531C68.4258 26.4531 68.9453 26.332 69.3906 26.0898C69.8438 25.8398 70.2188 25.5 70.5156 25.0703C70.8125 24.6406 71.0352 24.1484 71.1836 23.5938C71.3398 23.0312 71.418 22.4336 71.418 21.8008V21.5312C71.418 20.9062 71.3398 20.3164 71.1836 19.7617C71.0352 19.1992 70.8086 18.7031 70.5039 18.2734C70.207 17.8359 69.832 17.4922 69.3789 17.2422C68.9336 16.9922 68.4102 16.8672 67.8086 16.8672C67.2148 16.8672 66.6914 16.9922 66.2383 17.2422C65.793 17.4922 65.418 17.8359 65.1133 18.2734C64.8164 18.7031 64.5938 19.1992 64.4453 19.7617C64.2969 20.3164 64.2227 20.9062 64.2227 21.5312ZM78.4961 10V28H76.3164V10H78.4961ZM86.2422 15.3203L80.7109 21.2383L77.6172 24.4492L77.4414 22.1406L79.6562 19.4922L83.5938 15.3203H86.2422ZM84.2617 28L79.7383 21.9531L80.8633 20.0195L86.8164 28H84.2617ZM93.5078 28.2344C92.625 28.2344 91.8242 28.0859 91.1055 27.7891C90.3945 27.4844 89.7812 27.0586 89.2656 26.5117C88.7578 25.9648 88.3672 25.3164 88.0938 24.5664C87.8203 23.8164 87.6836 22.9961 87.6836 22.1055V21.6133C87.6836 20.582 87.8359 19.6641 88.1406 18.8594C88.4453 18.0469 88.8594 17.3594 89.3828 16.7969C89.9062 16.2344 90.5 15.8086 91.1641 15.5195C91.8281 15.2305 92.5156 15.0859 93.2266 15.0859C94.1328 15.0859 94.9141 15.2422 95.5703 15.5547C96.2344 15.8672 96.7773 16.3047 97.1992 16.8672C97.6211 17.4219 97.9336 18.0781 98.1367 18.8359C98.3398 19.5859 98.4414 20.4062 98.4414 21.2969V22.2695H88.9727V20.5H96.2734V20.3359C96.2422 19.7734 96.125 19.2266 95.9219 18.6953C95.7266 18.1641 95.4141 17.7266 94.9844 17.3828C94.5547 17.0391 93.9688 16.8672 93.2266 16.8672C92.7344 16.8672 92.2812 16.9727 91.8672 17.1836C91.4531 17.3867 91.0977 17.6914 90.8008 18.0977C90.5039 18.5039 90.2734 19 90.1094 19.5859C89.9453 20.1719 89.8633 20.8477 89.8633 21.6133V22.1055C89.8633 22.707 89.9453 23.2734 90.1094 23.8047C90.2812 24.3281 90.5273 24.7891 90.8477 25.1875C91.1758 25.5859 91.5703 25.8984 92.0312 26.125C92.5 26.3516 93.0312 26.4648 93.625 26.4648C94.3906 26.4648 95.0391 26.3086 95.5703 25.9961C96.1016 25.6836 96.5664 25.2656 96.9648 24.7422L98.2773 25.7852C98.0039 26.1992 97.6562 26.5938 97.2344 26.9688C96.8125 27.3438 96.293 27.6484 95.6758 27.8828C95.0664 28.1172 94.3438 28.2344 93.5078 28.2344ZM92.0195 13.4453L94.293 10H96.9062L93.7656 13.4453H92.0195ZM103.129 17.8398V28H100.949V15.3203H103.012L103.129 17.8398ZM102.684 21.1797L101.676 21.1445C101.684 20.2773 101.797 19.4766 102.016 18.7422C102.234 18 102.559 17.3555 102.988 16.8086C103.418 16.2617 103.953 15.8398 104.594 15.543C105.234 15.2383 105.977 15.0859 106.82 15.0859C107.414 15.0859 107.961 15.1719 108.461 15.3438C108.961 15.5078 109.395 15.7695 109.762 16.1289C110.129 16.4883 110.414 16.9492 110.617 17.5117C110.82 18.0742 110.922 18.7539 110.922 19.5508V28H108.754V19.6562C108.754 18.9922 108.641 18.4609 108.414 18.0625C108.195 17.6641 107.883 17.375 107.477 17.1953C107.07 17.0078 106.594 16.9141 106.047 16.9141C105.406 16.9141 104.871 17.0273 104.441 17.2539C104.012 17.4805 103.668 17.793 103.41 18.1914C103.152 18.5898 102.965 19.0469 102.848 19.5625C102.738 20.0703 102.684 20.6094 102.684 21.1797ZM110.898 19.9844L109.445 20.4297C109.453 19.7344 109.566 19.0664 109.785 18.4258C110.012 17.7852 110.336 17.2148 110.758 16.7148C111.188 16.2148 111.715 15.8203 112.34 15.5312C112.965 15.2344 113.68 15.0859 114.484 15.0859C115.164 15.0859 115.766 15.1758 116.289 15.3555C116.82 15.5352 117.266 15.8125 117.625 16.1875C117.992 16.5547 118.27 17.0273 118.457 17.6055C118.645 18.1836 118.738 18.8711 118.738 19.668V28H116.559V19.6445C116.559 18.9336 116.445 18.3828 116.219 17.9922C116 17.5938 115.688 17.3164 115.281 17.1602C114.883 16.9961 114.406 16.9141 113.852 16.9141C113.375 16.9141 112.953 16.9961 112.586 17.1602C112.219 17.3242 111.91 17.5508 111.66 17.8398C111.41 18.1211 111.219 18.4453 111.086 18.8125C110.961 19.1797 110.898 19.5703 110.898 19.9844ZM121.445 21.8008V21.5312C121.445 20.6172 121.578 19.7695 121.844 18.9883C122.109 18.1992 122.492 17.5156 122.992 16.9375C123.492 16.3516 124.098 15.8984 124.809 15.5781C125.52 15.25 126.316 15.0859 127.199 15.0859C128.09 15.0859 128.891 15.25 129.602 15.5781C130.32 15.8984 130.93 16.3516 131.43 16.9375C131.938 17.5156 132.324 18.1992 132.59 18.9883C132.855 19.7695 132.988 20.6172 132.988 21.5312V21.8008C132.988 22.7148 132.855 23.5625 132.59 24.3438C132.324 25.125 131.938 25.8086 131.43 26.3945C130.93 26.9727 130.324 27.4258 129.613 27.7539C128.91 28.0742 128.113 28.2344 127.223 28.2344C126.332 28.2344 125.531 28.0742 124.82 27.7539C124.109 27.4258 123.5 26.9727 122.992 26.3945C122.492 25.8086 122.109 25.125 121.844 24.3438C121.578 23.5625 121.445 22.7148 121.445 21.8008ZM123.613 21.5312V21.8008C123.613 22.4336 123.688 23.0312 123.836 23.5938C123.984 24.1484 124.207 24.6406 124.504 25.0703C124.809 25.5 125.188 25.8398 125.641 26.0898C126.094 26.332 126.621 26.4531 127.223 26.4531C127.816 26.4531 128.336 26.332 128.781 26.0898C129.234 25.8398 129.609 25.5 129.906 25.0703C130.203 24.6406 130.426 24.1484 130.574 23.5938C130.73 23.0312 130.809 22.4336 130.809 21.8008V21.5312C130.809 20.9062 130.73 20.3164 130.574 19.7617C130.426 19.1992 130.199 18.7031 129.895 18.2734C129.598 17.8359 129.223 17.4922 128.77 17.2422C128.324 16.9922 127.801 16.8672 127.199 16.8672C126.605 16.8672 126.082 16.9922 125.629 17.2422C125.184 17.4922 124.809 17.8359 124.504 18.2734C124.207 18.7031 123.984 19.1992 123.836 19.7617C123.688 20.3164 123.613 20.9062 123.613 21.5312ZM137.875 18.0273V28H135.707V15.3203H137.758L137.875 18.0273ZM137.359 21.1797L136.457 21.1445C136.465 20.2773 136.594 19.4766 136.844 18.7422C137.094 18 137.445 17.3555 137.898 16.8086C138.352 16.2617 138.891 15.8398 139.516 15.543C140.148 15.2383 140.848 15.0859 141.613 15.0859C142.238 15.0859 142.801 15.1719 143.301 15.3438C143.801 15.5078 144.227 15.7734 144.578 16.1406C144.938 16.5078 145.211 16.9844 145.398 17.5703C145.586 18.1484 145.68 18.8555 145.68 19.6914V28H143.5V19.668C143.5 19.0039 143.402 18.4727 143.207 18.0742C143.012 17.668 142.727 17.375 142.352 17.1953C141.977 17.0078 141.516 16.9141 140.969 16.9141C140.43 16.9141 139.938 17.0273 139.492 17.2539C139.055 17.4805 138.676 17.793 138.355 18.1914C138.043 18.5898 137.797 19.0469 137.617 19.5625C137.445 20.0703 137.359 20.6094 137.359 21.1797ZM161.09 10.9375V28H158.863V10.9375H161.09ZM166.574 10.9375V12.7891H153.391V10.9375H166.574ZM172.867 28.2344C171.984 28.2344 171.184 28.0859 170.465 27.7891C169.754 27.4844 169.141 27.0586 168.625 26.5117C168.117 25.9648 167.727 25.3164 167.453 24.5664C167.18 23.8164 167.043 22.9961 167.043 22.1055V21.6133C167.043 20.582 167.195 19.6641 167.5 18.8594C167.805 18.0469 168.219 17.3594 168.742 16.7969C169.266 16.2344 169.859 15.8086 170.523 15.5195C171.188 15.2305 171.875 15.0859 172.586 15.0859C173.492 15.0859 174.273 15.2422 174.93 15.5547C175.594 15.8672 176.137 16.3047 176.559 16.8672C176.98 17.4219 177.293 18.0781 177.496 18.8359C177.699 19.5859 177.801 20.4062 177.801 21.2969V22.2695H168.332V20.5H175.633V20.3359C175.602 19.7734 175.484 19.2266 175.281 18.6953C175.086 18.1641 174.773 17.7266 174.344 17.3828C173.914 17.0391 173.328 16.8672 172.586 16.8672C172.094 16.8672 171.641 16.9727 171.227 17.1836C170.812 17.3867 170.457 17.6914 170.16 18.0977C169.863 18.5039 169.633 19 169.469 19.5859C169.305 20.1719 169.223 20.8477 169.223 21.6133V22.1055C169.223 22.707 169.305 23.2734 169.469 23.8047C169.641 24.3281 169.887 24.7891 170.207 25.1875C170.535 25.5859 170.93 25.8984 171.391 26.125C171.859 26.3516 172.391 26.4648 172.984 26.4648C173.75 26.4648 174.398 26.3086 174.93 25.9961C175.461 25.6836 175.926 25.2656 176.324 24.7422L177.637 25.7852C177.363 26.1992 177.016 26.5938 176.594 26.9688C176.172 27.3438 175.652 27.6484 175.035 27.8828C174.426 28.1172 173.703 28.2344 172.867 28.2344ZM187.809 25.832V19.3047C187.809 18.8047 187.707 18.3711 187.504 18.0039C187.309 17.6289 187.012 17.3398 186.613 17.1367C186.215 16.9336 185.723 16.832 185.137 16.832C184.59 16.832 184.109 16.9258 183.695 17.1133C183.289 17.3008 182.969 17.5469 182.734 17.8516C182.508 18.1562 182.395 18.4844 182.395 18.8359H180.227C180.227 18.3828 180.344 17.9336 180.578 17.4883C180.812 17.043 181.148 16.6406 181.586 16.2812C182.031 15.9141 182.562 15.625 183.18 15.4141C183.805 15.1953 184.5 15.0859 185.266 15.0859C186.188 15.0859 187 15.2422 187.703 15.5547C188.414 15.8672 188.969 16.3398 189.367 16.9727C189.773 17.5977 189.977 18.3828 189.977 19.3281V25.2344C189.977 25.6562 190.012 26.1055 190.082 26.582C190.16 27.0586 190.273 27.4688 190.422 27.8125V28H188.16C188.051 27.75 187.965 27.418 187.902 27.0039C187.84 26.582 187.809 26.1914 187.809 25.832ZM188.184 20.3125L188.207 21.8359H186.016C185.398 21.8359 184.848 21.8867 184.363 21.9883C183.879 22.082 183.473 22.2266 183.145 22.4219C182.816 22.6172 182.566 22.8633 182.395 23.1602C182.223 23.4492 182.137 23.7891 182.137 24.1797C182.137 24.5781 182.227 24.9414 182.406 25.2695C182.586 25.5977 182.855 25.8594 183.215 26.0547C183.582 26.2422 184.031 26.3359 184.562 26.3359C185.227 26.3359 185.812 26.1953 186.32 25.9141C186.828 25.6328 187.23 25.2891 187.527 24.8828C187.832 24.4766 187.996 24.082 188.02 23.6992L188.945 24.7422C188.891 25.0703 188.742 25.4336 188.5 25.832C188.258 26.2305 187.934 26.6133 187.527 26.9805C187.129 27.3398 186.652 27.6406 186.098 27.8828C185.551 28.1172 184.934 28.2344 184.246 28.2344C183.387 28.2344 182.633 28.0664 181.984 27.7305C181.344 27.3945 180.844 26.9453 180.484 26.3828C180.133 25.8125 179.957 25.1758 179.957 24.4727C179.957 23.793 180.09 23.1953 180.355 22.6797C180.621 22.1562 181.004 21.7227 181.504 21.3789C182.004 21.0273 182.605 20.7617 183.309 20.582C184.012 20.4023 184.797 20.3125 185.664 20.3125H188.184ZM195.543 17.8398V28H193.363V15.3203H195.426L195.543 17.8398ZM195.098 21.1797L194.09 21.1445C194.098 20.2773 194.211 19.4766 194.43 18.7422C194.648 18 194.973 17.3555 195.402 16.8086C195.832 16.2617 196.367 15.8398 197.008 15.543C197.648 15.2383 198.391 15.0859 199.234 15.0859C199.828 15.0859 200.375 15.1719 200.875 15.3438C201.375 15.5078 201.809 15.7695 202.176 16.1289C202.543 16.4883 202.828 16.9492 203.031 17.5117C203.234 18.0742 203.336 18.7539 203.336 19.5508V28H201.168V19.6562C201.168 18.9922 201.055 18.4609 200.828 18.0625C200.609 17.6641 200.297 17.375 199.891 17.1953C199.484 17.0078 199.008 16.9141 198.461 16.9141C197.82 16.9141 197.285 17.0273 196.855 17.2539C196.426 17.4805 196.082 17.793 195.824 18.1914C195.566 18.5898 195.379 19.0469 195.262 19.5625C195.152 20.0703 195.098 20.6094 195.098 21.1797ZM203.312 19.9844L201.859 20.4297C201.867 19.7344 201.98 19.0664 202.199 18.4258C202.426 17.7852 202.75 17.2148 203.172 16.7148C203.602 16.2148 204.129 15.8203 204.754 15.5312C205.379 15.2344 206.094 15.0859 206.898 15.0859C207.578 15.0859 208.18 15.1758 208.703 15.3555C209.234 15.5352 209.68 15.8125 210.039 16.1875C210.406 16.5547 210.684 17.0273 210.871 17.6055C211.059 18.1836 211.152 18.8711 211.152 19.668V28H208.973V19.6445C208.973 18.9336 208.859 18.3828 208.633 17.9922C208.414 17.5938 208.102 17.3164 207.695 17.1602C207.297 16.9961 206.82 16.9141 206.266 16.9141C205.789 16.9141 205.367 16.9961 205 17.1602C204.633 17.3242 204.324 17.5508 204.074 17.8398C203.824 18.1211 203.633 18.4453 203.5 18.8125C203.375 19.1797 203.312 19.5703 203.312 19.9844Z" fill="white"/>
<circle cx="20" cy="20" r="18" stroke="#EDE2E2" stroke-opacity="0.97" stroke-width="4"/>
<path d="M21.6666 20C21.6666 20.9205 20.9205 21.6667 20 21.6667C19.0795 21.6667 18.3333 20.9205 18.3333 20C18.3333 19.0795 19.0795 18.3333 20 18.3333C20.9205 18.3333 21.6666 19.0795 21.6666 20Z" fill="#EFE5E5" stroke="#FBFBFB" stroke-width="2"/>
<rect x="0.866667" y="19.2667" width="38.2667" height="1.73333" stroke="white" stroke-width="1.73333"/>
</svg>
